<svg width="225" height="102" viewBox="0 0 225 102" fill="none" xmlns="http://www.w3.org/2000/svg">
<path d="M73.6134 92.5928H44.2856C36.8918 92.5928 30.8916 98.5627 30.8916 105.919C30.8916 113.275 36.8918 119.245 44.2856 119.245H140.119C140.276 119.25 140.438 119.258 140.6 119.258C147.994 119.258 154.016 113.288 154.016 105.919C154.016 98.55 147.994 92.5928 140.6 92.5928H73.6134Z" fill="#63BACF"/>
<path d="M33.3848 66.4193C14.9452 66.4193 0 51.5454 0 33.2031H16.6881C16.6881 42.3785 24.1628 49.8154 33.3848 49.8154C42.6067 49.8154 50.0559 42.4039 50.0814 33.2498V33.2031H66.7696V33.2837C66.727 51.592 51.7946 66.4193 33.3848 66.4193Z" fill="#E16957"/>
<path d="M50.0814 33.2162C50.0814 24.0408 42.6067 16.6038 33.3848 16.6038C24.1628 16.6038 16.6881 24.0408 16.6881 33.2162H0C0 14.8697 14.9452 0 33.3848 0" fill="#63BACF"/>
<path d="M15.5205 92.5335C24.0861 92.5335 31.0409 99.4532 31.0409 107.976C31.0409 116.498 24.0861 123.43 15.5205 123.43C6.95481 123.43 0 116.494 0 107.971C0 99.449 6.93776 92.5293 15.5205 92.5293V92.5335Z" fill="#EAA741"/>
<path d="M63.1726 20.0508H33.8491C26.4553 20.0508 20.4551 26.0207 20.4551 33.3771C20.4551 40.7335 26.4553 46.7034 33.8491 46.7034H145.893C146.051 46.7077 146.213 46.7161 146.375 46.7161C153.768 46.7161 143.575 40.7462 143.575 33.3771C143.575 26.008 137.553 20.0508 130.16 20.0508H63.1726Z" fill="#E16957"/>
<path d="M58.6005 0.119141H30.9219V32.9198H58.6005V0.119141Z" fill="#EAA741"/>
<path d="M30.8916 103.019V139.848C30.8916 147.442 37.0879 153.611 44.7245 153.611C52.3612 153.611 58.5574 147.446 58.5574 139.848V34.6957C58.5617 34.5303 58.5702 34.3692 58.5702 34.2038C58.5702 26.61 52.374 20.4238 44.7288 20.4238C37.0836 20.4238 30.8959 26.61 30.8959 34.2038V103.019" fill="#76529C"/>
<path d="M128.238 76.7986C111.554 76.7986 98.0283 63.3408 98.0283 46.7412H113.131C113.131 55.0431 119.894 61.772 128.238 61.772C136.582 61.772 143.32 55.0643 143.345 46.7836V46.7412H158.448V46.8133C158.41 63.379 144.901 76.7986 128.238 76.7986Z" fill="#63BACF"/>
<path d="M128.238 20.0508C144.922 20.0508 158.448 30.142 158.448 46.7416H143.345C143.345 38.4397 136.582 31.7108 128.238 31.7108" fill="#E16957"/>
<path d="M89.5393 63.8159C89.5393 80.8183 75.685 94.6026 58.5963 94.6026V79.2114C67.1407 79.2114 74.0699 72.3171 74.0699 63.8159C74.0699 55.3147 67.2387 48.7682 58.7114 48.7427L58.6432 48.7088L58.5537 48.6367L58.5963 33.0293H58.6688C75.7234 33.0675 89.5393 46.839 89.5393 63.8159Z" fill="#EAA741"/>
<path d="M60.0576 48.5693C68.6232 48.5693 75.5781 55.489 75.5781 64.0114C75.5781 72.5338 68.6232 79.4662 60.0576 79.4662C51.4919 79.4662 44.5371 72.5338 44.5371 64.0114C44.5371 55.489 51.4749 48.5693 60.0576 48.5693Z" fill="#63BACF"/>
<path opacity="0.45" d="M58.5537 48.6375C59.048 48.5909 59.5509 48.5654 60.058 48.5654C68.6237 48.5654 75.5785 55.4851 75.5785 64.0075C75.5785 72.5299 68.6237 79.4623 60.058 79.4623C59.5509 79.4623 59.0523 79.4369 58.558 79.3902" fill="white"/>
<path opacity="0.45" d="M116.118 100.729V55.7303C117.904 58.0156 121.581 61.8783 128.242 61.7723C135.346 61.662 139.071 57.4644 140.464 55.6582V100.725" fill="white"/>
<path d="M152.094 119.25H181.421C188.815 119.25 193.827 113.373 193.827 106.017C193.827 98.6602 188.815 92.5928 181.421 92.5928H85.5882C85.4306 92.5886 85.2686 92.5801 85.1067 92.5801C77.7129 92.5801 71.6914 98.55 71.6914 105.919C71.6914 113.288 77.7129 119.245 85.1067 119.245H152.094" fill="#63BACF"/>
<path d="M207.813 72.0844V91.4018L197.338 101.205L193.61 101.968L192.459 72.0801L197.82 70.3672L207.813 72.0844Z" fill="#63BACF"/>
<path d="M209.479 119.314C200.914 119.314 193.959 112.394 193.959 103.872C193.959 95.3494 200.914 88.417 209.479 88.417C218.045 88.417 225 95.3494 225 103.872C225 112.394 218.062 119.314 209.479 119.314Z" fill="#EAA741"/>
<path d="M180.177 44.5921C195.438 44.5921 207.809 56.9008 207.809 72.0843H193.997C193.997 64.4904 187.809 58.334 180.177 58.334C172.557 58.334 166.378 64.4692 166.357 72.0419V72.08H152.541V72.0165C152.575 56.8627 164.934 44.5879 180.173 44.5879L180.177 44.5921Z" fill="#63BACF"/>
<path d="M180.177 99.5761C164.916 99.5761 152.545 87.2674 152.545 72.084H166.357C166.357 79.6778 172.544 85.8343 180.177 85.8343" fill="#EAA741"/>
<path d="M194.108 108.824V71.9955C194.108 64.4016 187.912 58.2324 180.275 58.2324C172.639 58.2324 166.442 64.3974 166.442 71.9955V177.147C166.438 177.313 166.43 177.474 166.43 177.639C166.43 185.233 172.626 191.419 180.271 191.419C187.916 191.419 194.104 185.233 194.104 177.639V108.824" fill="#76529C"/>
<path opacity="0.45" d="M113.113 46.7333C113.113 38.4398 119.864 31.7109 128.212 31.7109C136.56 31.7109 143.31 38.4441 143.31 46.7333" fill="white"/>
<path opacity="0.45" d="M166.387 71.974C166.387 64.3632 172.583 58.1855 180.245 58.1855C187.907 58.1855 194.104 64.3632 194.104 71.974" fill="white"/>
</svg>
