<svg width="28" height="28" viewBox="0 0 28 28" fill="none" xmlns="http://www.w3.org/2000/svg">
<path d="M2.8 5.3617C4.3464 5.3617 5.6 4.16144 5.6 2.68085C5.6 1.20026 4.3464 0 2.8 0C1.2536 0 0 1.20026 0 2.68085C0 4.16144 1.2536 5.3617 2.8 5.3617Z" fill="#79B8CC"/>
<path d="M2.8 16.681C4.3464 16.681 5.6 15.4808 5.6 14.0002C5.6 12.5196 4.3464 11.3193 2.8 11.3193C1.2536 11.3193 0 12.5196 0 14.0002C0 15.4808 1.2536 16.681 2.8 16.681Z" fill="#D26F5D"/>
<path d="M2.8 28.0004C4.3464 28.0004 5.6 26.8001 5.6 25.3195C5.6 23.8389 4.3464 22.6387 2.8 22.6387C1.2536 22.6387 0 23.8389 0 25.3195C0 26.8001 1.2536 28.0004 2.8 28.0004Z" fill="#E0AA55"/>
<path d="M14.0002 5.3617C15.5466 5.3617 16.8002 4.16144 16.8002 2.68085C16.8002 1.20026 15.5466 0 14.0002 0C12.4538 0 11.2002 1.20026 11.2002 2.68085C11.2002 4.16144 12.4538 5.3617 14.0002 5.3617Z" fill="#715397"/>
<path d="M14.0002 16.681C15.5466 16.681 16.8002 15.4808 16.8002 14.0002C16.8002 12.5196 15.5466 11.3193 14.0002 11.3193C12.4538 11.3193 11.2002 12.5196 11.2002 14.0002C11.2002 15.4808 12.4538 16.681 14.0002 16.681Z" fill="#79B8CC"/>
<path d="M14.0002 28.0004C15.5466 28.0004 16.8002 26.8001 16.8002 25.3195C16.8002 23.8389 15.5466 22.6387 14.0002 22.6387C12.4538 22.6387 11.2002 23.8389 11.2002 25.3195C11.2002 26.8001 12.4538 28.0004 14.0002 28.0004Z" fill="#D26F5D"/>
<path d="M25.2004 5.3617C26.7468 5.3617 28.0004 4.16144 28.0004 2.68085C28.0004 1.20026 26.7468 0 25.2004 0C23.654 0 22.4004 1.20026 22.4004 2.68085C22.4004 4.16144 23.654 5.3617 25.2004 5.3617Z" fill="#E0AA55"/>
<path d="M25.2004 16.681C26.7468 16.681 28.0004 15.4808 28.0004 14.0002C28.0004 12.5196 26.7468 11.3193 25.2004 11.3193C23.654 11.3193 22.4004 12.5196 22.4004 14.0002C22.4004 15.4808 23.654 16.681 25.2004 16.681Z" fill="#715397"/>
<path d="M25.2004 28.0004C26.7468 28.0004 28.0004 26.8001 28.0004 25.3195C28.0004 23.8389 26.7468 22.6387 25.2004 22.6387C23.654 22.6387 22.4004 23.8389 22.4004 25.3195C22.4004 26.8001 23.654 28.0004 25.2004 28.0004Z" fill="#79B8CC"/>
</svg>
