<svg width="40" height="41" viewBox="0 0 40 41" fill="none" xmlns="http://www.w3.org/2000/svg">
<mask id="mask0_120_2371" style="mask-type:luminance" maskUnits="userSpaceOnUse" x="0" y="0" width="40" height="41">
<path d="M20 40.5C31.0457 40.5 40 31.5457 40 20.5C40 9.4543 31.0457 0.5 20 0.5C8.9543 0.5 0 9.4543 0 20.5C0 31.5457 8.9543 40.5 20 40.5Z" fill="white"/>
</mask>
<g mask="url(#mask0_120_2371)">
<path d="M20 40.5C31.0457 40.5 40 31.5457 40 20.5C40 9.4543 31.0457 0.5 20 0.5C8.9543 0.5 0 9.4543 0 20.5C0 31.5457 8.9543 40.5 20 40.5Z" fill="white"/>
<path opacity="0.3" d="M20 40.5C31.0457 40.5 40 31.5457 40 20.5C40 9.4543 31.0457 0.5 20 0.5C8.9543 0.5 0 9.4543 0 20.5C0 31.5457 8.9543 40.5 20 40.5Z" fill="#79B8CC"/>
<path d="M25.1718 25.5874C29.1718 27.5134 31.6825 30.5231 32.7274 34.718C32.8443 35.1937 32.9223 35.6771 33.0003 36.1527C33.3979 38.6089 32.743 39.9656 30.5363 41.1586C28.2439 42.3984 25.7332 42.8506 23.1757 43.0611C19.2927 43.3886 15.4408 43.2483 11.6903 42.0475C7.27709 40.6362 6.23225 38.6635 7.50321 34.219C8.56364 30.5309 10.7781 27.7629 14.1855 25.9773C14.4038 25.8603 14.6221 25.7356 14.856 25.603C10.7313 20.5894 10.6221 15.9032 14.5052 12.4334C17.7878 9.50163 22.9106 9.71995 26.0373 12.8779C28.8443 15.7161 29.8424 21.3769 25.1562 25.5796L25.1718 25.5874Z" fill="#33357D"/>
</g>
</svg>
